<svg width="16" height="17" viewBox="0 0 16 17" fill="none" xmlns="http://www.w3.org/2000/svg">
<path d="M6.84568 8.50242L11.3286 4.19263C11.4521 4.07425 11.52 3.91597 11.52 3.7472C11.52 3.57833 11.4521 3.42014 11.3286 3.30157L10.9358 2.92412C10.8126 2.80536 10.6478 2.73999 10.4723 2.73999C10.2967 2.73999 10.1322 2.80536 10.0088 2.92412L4.67113 8.0553C4.5473 8.17424 4.47949 8.33318 4.47998 8.50214C4.47949 8.67185 4.54721 8.8306 4.67113 8.94964L10.0038 14.0759C10.1272 14.1946 10.2917 14.26 10.4674 14.26C10.643 14.26 10.8075 14.1946 10.9309 14.0759L11.3237 13.6984C11.5792 13.4527 11.5792 13.0528 11.3237 12.8073L6.84568 8.50242Z" fill="#202020"/>
</svg>
