<svg width="16" height="17" viewBox="0 0 16 17" fill="none" xmlns="http://www.w3.org/2000/svg">
<path d="M9.15432 8.50243L4.67137 4.19264C4.54793 4.07425 4.48002 3.91597 4.48002 3.7472C4.48002 3.57833 4.54793 3.42014 4.67136 3.30157L5.06419 2.92412C5.18743 2.80536 5.35218 2.73999 5.52774 2.73999C5.7033 2.73999 5.86785 2.80536 5.99119 2.92412L11.3289 8.0553C11.4527 8.17425 11.5205 8.33318 11.52 8.50214C11.5205 8.67185 11.4528 8.8306 11.3289 8.94964L5.99616 14.0759C5.87282 14.1946 5.70827 14.26 5.53261 14.26C5.35705 14.26 5.1925 14.1946 5.06906 14.0759L4.67633 13.6984C4.42079 13.4527 4.42079 13.0528 4.67633 12.8073L9.15432 8.50243Z" fill="white"/>
</svg>
