<svg width="50" height="50" viewBox="0 0 50 50" fill="none" xmlns="http://www.w3.org/2000/svg">
<path d="M1.85708 0.434151C1.58371 0.531017 1.21272 0.792561 0.871019 1.1316C-0.0857509 2.0906 0.00211569 -0.437664 0.00211569 25.0678C0.00211569 50.5732 -0.0857509 48.0449 0.871019 49.0039C1.82779 49.9532 -0.0271735 49.8661 19.7233 49.8661C39.4738 49.8661 37.6188 49.9532 38.5756 49.0039C39.5323 48.0449 39.4445 50.5732 39.4445 25.0678C39.4445 -0.437664 39.5323 2.0906 38.5756 1.1316C37.6188 0.182293 39.4738 0.269474 19.6842 0.27916C4.07327 0.27916 2.2476 0.298534 1.85708 0.434151ZM36.9744 2.4587C37.1209 2.56525 37.2966 2.80742 37.365 2.99147C37.5309 3.46613 37.5309 46.6694 37.365 47.1441C37.2966 47.3281 37.1209 47.5703 36.9744 47.6768L36.7011 47.8803H19.7233H2.74551L2.47214 47.6768C2.3257 47.5703 2.1402 47.3087 2.07186 47.1053C1.97423 46.8244 1.95471 42.2425 1.97423 24.874L2.00352 2.99147L2.20854 2.72024C2.31594 2.57494 2.56001 2.40058 2.74551 2.33277C2.99934 2.24559 7.02168 2.21653 19.8893 2.2359L36.7011 2.25528L36.9744 2.4587Z" fill="#FF3E54"/>
<path d="M18.0243 8.07802C17.8193 8.28134 17.7705 8.42657 17.7705 8.79449C17.7705 9.1624 17.8193 9.30763 18.0243 9.51095L18.2879 9.76269H21.9588C26.03 9.76269 25.9519 9.77237 26.1667 9.13336C26.2545 8.88162 26.2545 8.70735 26.1667 8.45562C25.9519 7.8166 26.03 7.82629 21.9588 7.82629H18.2879L18.0243 8.07802Z" fill="#FF3E54"/>
<path d="M28.9882 8.10707C28.7637 8.32976 28.7051 8.47499 28.7051 8.79449C28.7051 9.114 28.7637 9.25923 28.9882 9.48192L29.2713 9.7627H31.468H33.6549L33.9185 9.51096C34.2797 9.14305 34.2797 8.44594 33.9185 8.07803L33.6549 7.82629H31.468H29.2713L28.9882 8.10707Z" fill="#FF3E54"/>
<path d="M12.2061 9.84032C12.0499 9.8597 11.2786 10.5571 10.1364 11.6808L8.31069 13.4729L7.51989 12.7367C6.77791 12.0199 6.71933 11.9908 6.28 11.9908C5.91877 11.9908 5.76256 12.0392 5.54778 12.2523C5.32323 12.4655 5.27441 12.5914 5.27441 12.9982V13.4729L6.52407 14.7225L7.78349 15.9624H8.30093H8.81837L10.9565 13.8507C12.1378 12.6979 13.1922 11.6324 13.2898 11.4871C13.5144 11.1771 13.5534 10.5668 13.3679 10.2665C13.1629 9.93719 12.665 9.75314 12.2061 9.84032Z" fill="#FF3E54"/>
<path d="M18.0243 14.2776C17.8193 14.4809 17.7705 14.6262 17.7705 14.9941C17.7705 15.362 17.8193 15.5072 18.0243 15.7105L18.2879 15.9623H25.9714H33.6548L33.9184 15.7105C34.2797 15.3426 34.2797 14.6455 33.9184 14.2776L33.6548 14.0259H25.9714H18.2879L18.0243 14.2776Z" fill="#FF3E54"/>
<path d="M5.52825 21.2513C5.32323 21.4644 5.27441 21.6 5.27441 21.9875V22.4718L6.56312 23.7698L7.84207 25.0679L6.56312 26.3659L5.27441 27.664V28.1483C5.27441 28.8167 5.59659 29.1364 6.27024 29.1364H6.75838L8.06662 27.8577L9.37486 26.5887L10.6831 27.8577L11.9913 29.1364H12.4795C13.1531 29.1364 13.4753 28.8167 13.4753 28.1483V27.664L12.1866 26.3659L10.9076 25.0679L12.1866 23.7698L13.4753 22.4718V21.9875C13.4753 21.3191 13.1531 20.9994 12.4795 20.9994H11.9913L10.6831 22.2781L9.37486 23.547L8.06662 22.2781L6.75838 20.9994H6.27024C5.87972 20.9994 5.74304 21.0478 5.52825 21.2513Z" fill="#FF3E54"/>
<path d="M18.0243 21.2522C17.8193 21.4555 17.7705 21.6008 17.7705 21.9687C17.7705 22.3366 17.8193 22.4818 18.0243 22.6851L18.2879 22.9369H21.9588C26.03 22.9369 25.9519 22.9466 26.1667 22.3076C26.2545 22.0558 26.2545 21.8815 26.1667 21.6298C25.9519 20.9908 26.03 21.0005 21.9588 21.0005H18.2879L18.0243 21.2522Z" fill="#FF3E54"/>
<path d="M28.9882 21.2811C28.7637 21.5038 28.7051 21.6491 28.7051 21.9686C28.7051 22.2881 28.7637 22.4333 28.9882 22.656L29.2713 22.9368H31.468H33.6549L33.9185 22.685C34.2797 22.3171 34.2797 21.62 33.9185 21.2521L33.6549 21.0004H31.468H29.2713L28.9882 21.2811Z" fill="#FF3E54"/>
<path d="M18.0243 27.4517C17.8193 27.655 17.7705 27.8002 17.7705 28.1682C17.7705 28.5361 17.8193 28.6813 18.0243 28.8846L18.2879 29.1364H25.9714H33.6548L33.9184 28.8846C34.2797 28.5167 34.2797 27.8196 33.9184 27.4517L33.6548 27.2H25.9714H18.2879L18.0243 27.4517Z" fill="#FF3E54"/>
<path d="M5.52825 34.4255C5.32323 34.6386 5.27441 34.7742 5.27441 35.1617V35.646L6.56312 36.944L7.84207 38.2421L6.56312 39.5401L5.27441 40.8381V41.3225C5.27441 41.9909 5.59659 42.3105 6.27024 42.3105H6.75838L8.06662 41.0319L9.37486 39.7629L10.6831 41.0319L11.9913 42.3105H12.4795C13.1531 42.3105 13.4753 41.9909 13.4753 41.3225V40.8381L12.1866 39.5401L10.9076 38.2421L12.1866 36.944L13.4753 35.646V35.1617C13.4753 34.4933 13.1531 34.1736 12.4795 34.1736H11.9913L10.6831 35.4523L9.37486 36.7212L8.06662 35.4523L6.75838 34.1736H6.27024C5.87972 34.1736 5.74304 34.222 5.52825 34.4255Z" fill="#FF3E54"/>
<path d="M18.0243 34.4263C17.8193 34.6296 17.7705 34.7748 17.7705 35.1428C17.7705 35.5107 17.8193 35.6559 18.0243 35.8592L18.2879 36.111H21.9588C26.03 36.111 25.9519 36.1206 26.1667 35.4816C26.2545 35.2299 26.2545 35.0556 26.1667 34.8039C25.9519 34.1649 26.03 34.1746 21.9588 34.1746H18.2879L18.0243 34.4263Z" fill="#FF3E54"/>
<path d="M28.9882 34.4553C28.7637 34.678 28.7051 34.8233 28.7051 35.1428C28.7051 35.4623 28.7637 35.6075 28.9882 35.8302L29.2713 36.111H31.468H33.6549L33.9185 35.8592C34.2797 35.4913 34.2797 34.7942 33.9185 34.4263L33.6549 34.1746H31.468H29.2713L28.9882 34.4553Z" fill="#FF3E54"/>
<path d="M18.0243 40.6259C17.8193 40.8292 17.7705 40.9744 17.7705 41.3423C17.7705 41.7103 17.8193 41.8555 18.0243 42.0588L18.2879 42.3105H25.9714H33.6548L33.9184 42.0588C34.2797 41.6909 34.2797 40.9938 33.9184 40.6259L33.6548 40.3741H25.9714H18.2879L18.0243 40.6259Z" fill="#FF3E54"/>
<path d="M44.8724 5.733C43.8571 6.15922 43.1444 6.88573 42.7734 7.87379C42.5684 8.40657 42.5684 8.55187 42.5684 16.0979V23.7796L42.8222 24.0411C43.1932 24.3995 43.8961 24.3995 44.2671 24.0411L44.521 23.7796V18.0353V12.2813H46.2783H48.0356V27.0537V41.8262H46.2783H44.521V36.7018V31.5872L44.2671 31.3256C43.8961 30.9672 43.1932 30.9672 42.8222 31.3256L42.5684 31.5872V37.409V43.2404L43.9742 46.3305C44.7455 48.0354 45.4777 49.5272 45.5949 49.6434C45.8975 49.9631 46.659 49.9631 46.9617 49.6434C47.0788 49.5175 47.8111 48.0257 48.5823 46.3305L49.9882 43.2404L49.9687 25.6976L49.9394 8.1644L49.627 7.52507C49.2462 6.75981 48.6312 6.16891 47.8599 5.8105C47.401 5.59739 47.1374 5.54895 46.3759 5.51989C45.5754 5.50052 45.3703 5.52958 44.8724 5.733ZM46.991 7.67037C47.6549 7.9416 48.0356 8.72623 48.0356 9.81116V10.2471H46.2783H44.521V9.81116C44.521 8.37751 45.1458 7.53475 46.2099 7.53475C46.4638 7.53475 46.8152 7.59287 46.991 7.67037ZM46.8836 45.0712C46.5809 45.7396 46.3076 46.2821 46.2783 46.2821C46.249 46.2821 45.9756 45.7396 45.673 45.0712L45.1263 43.8604H46.2783H47.4303L46.8836 45.0712Z" fill="#FF3E54"/>
<path d="M42.8222 26.9674C42.6172 27.1708 42.5684 27.316 42.5684 27.6839C42.5684 28.0518 42.6172 28.197 42.8222 28.4004C43.0272 28.6037 43.1737 28.6521 43.5447 28.6521C43.9156 28.6521 44.0621 28.6037 44.2671 28.4004C44.4721 28.197 44.521 28.0518 44.521 27.6839C44.521 27.316 44.4721 27.1708 44.2671 26.9674C44.0621 26.7641 43.9156 26.7157 43.5447 26.7157C43.1737 26.7157 43.0272 26.7641 42.8222 26.9674Z" fill="#FF3E54"/>
</svg>
