<svg width="59" height="59" viewBox="0 0 59 59" fill="none" xmlns="http://www.w3.org/2000/svg">
<path d="M2.24121 56.6287C2.27196 53.9822 2.97508 51.3862 4.2855 49.0809C5.66742 46.6835 7.65944 44.6881 10.0624 43.2942C12.4653 41.9002 15.1949 41.1566 17.9784 41.1376C23.5926 41.1504 28.9069 44.229 31.6712 49.0809C32.9809 51.3849 33.684 53.9794 33.7155 56.6245M42.3726 5.19294V1.70605M54.3684 9.475L57.2441 7.47217M30.3684 9.475L27.4884 7.47217M17.9741 33.7301C19.0362 33.7545 20.0925 33.5681 21.0809 33.1817C22.0693 32.7953 22.9699 32.2168 23.7298 31.4801C24.4897 30.7435 25.0935 29.8635 25.5057 28.892C25.918 27.9205 26.1303 26.8771 26.1303 25.823C26.1303 24.7689 25.918 23.7254 25.5057 22.7539C25.0935 21.7824 24.4897 20.9025 23.7298 20.1658C22.9699 19.4291 22.0693 18.8506 21.0809 18.4642C20.0925 18.0778 19.0362 17.8914 17.9741 17.9158C15.8925 17.9637 13.9124 18.8178 12.4573 20.2955C11.0021 21.7731 10.1875 23.757 10.1875 25.823C10.1875 27.8889 11.0021 29.8728 12.4573 31.3504C13.9124 32.8281 15.8925 33.6822 17.9741 33.7301ZM51.0855 20.8201C51.0782 19.6693 50.8419 18.5313 50.3902 17.4713C49.9384 16.4114 49.2801 15.4504 48.453 14.6436C47.6259 13.8368 46.6463 13.2 45.5705 12.7698C44.4947 12.3397 43.3439 12.1246 42.1841 12.1369C41.0247 12.1726 39.8839 12.4352 38.8271 12.9095C37.7702 13.3839 36.8183 14.0607 36.0258 14.9011C35.2334 15.7415 34.616 16.729 34.2093 17.8067C33.8025 18.8845 33.6143 20.0314 33.6555 21.1816C33.7409 22.7195 34.2314 24.2083 35.0783 25.4992C35.9251 26.7901 37.0985 27.838 38.4812 28.5381V32.7903C38.489 33.0404 38.5943 33.2777 38.775 33.4523C38.9557 33.6268 39.1976 33.7249 39.4498 33.7259H45.2826C45.5355 33.726 45.7786 33.6284 45.9602 33.4537C46.1418 33.2791 46.2477 33.0412 46.2555 32.7903V28.4615C47.6812 27.7391 48.8833 26.6474 49.7344 25.3021C50.5855 23.9568 51.0495 22.4081 51.0855 20.8201Z" stroke="#FF3E54" stroke-width="3" stroke-linecap="round" stroke-linejoin="round"/>
</svg>
