<svg width="50" height="50" viewBox="0 0 50 50" fill="none" xmlns="http://www.w3.org/2000/svg">
<path fill-rule="evenodd" clip-rule="evenodd" d="M29.1663 12.6756H20.833C20.2805 12.6756 19.7506 12.8933 19.3599 13.281C18.9692 13.6687 18.7497 14.1944 18.7497 14.7426V35.4135C18.7497 35.9618 18.9692 36.4875 19.3599 36.8752C19.7506 37.2628 20.2805 37.4806 20.833 37.4806H29.1663C29.7189 37.4806 30.2488 37.2628 30.6395 36.8752C31.0302 36.4875 31.2497 35.9618 31.2497 35.4135V14.7426C31.2497 14.1944 31.0302 13.6687 30.6395 13.281C30.2488 12.8933 29.7189 12.6756 29.1663 12.6756ZM20.833 8.54138C19.1754 8.54138 17.5857 9.19473 16.4136 10.3577C15.2415 11.5207 14.583 13.098 14.583 14.7426V35.4135C14.583 37.0582 15.2415 38.6355 16.4136 39.7985C17.5857 40.9615 19.1754 41.6148 20.833 41.6148H29.1663C30.8239 41.6148 32.4137 40.9615 33.5858 39.7985C34.7579 38.6355 35.4163 37.0582 35.4163 35.4135V14.7426C35.4163 13.098 34.7579 11.5207 33.5858 10.3577C32.4137 9.19473 30.8239 8.54138 29.1663 8.54138H20.833Z" fill="#FF3E54"/>
<path d="M12.5 15.6935L7.27708 14.8294C6.38197 14.6815 5.46511 14.7287 4.59024 14.9678C3.71537 15.2069 2.90347 15.6322 2.21096 16.214C1.51846 16.7959 0.961962 17.5204 0.580149 18.3372C0.198337 19.154 0.000367597 20.0435 2.14228e-07 20.9439V31.1078C-0.000237457 32.0085 0.197287 32.8984 0.578835 33.7158C0.960384 34.5331 1.5168 35.2581 2.20937 35.8404C2.90195 36.4227 3.71407 36.8484 4.58924 37.0877C5.46441 37.3271 6.38162 37.3744 7.27708 37.2263L12.5 36.3602V32.1702L6.59167 33.1459C6.29352 33.1951 5.98816 33.1793 5.69677 33.0997C5.40538 33.02 5.13494 32.8785 4.90422 32.6847C4.6735 32.491 4.48803 32.2498 4.36067 31.9779C4.23331 31.7059 4.16711 31.4097 4.16667 31.1098V20.9459C4.1665 20.6457 4.23226 20.349 4.35935 20.0766C4.48645 19.8041 4.67184 19.5624 4.90263 19.3682C5.13343 19.1741 5.40408 19.0321 5.69576 18.9522C5.98745 18.8724 6.29317 18.8565 6.59167 18.9057L12.5 19.8835V15.6935ZM37.5 15.6935L42.7229 14.8294C43.618 14.6815 44.5349 14.7287 45.4098 14.9678C46.2846 15.2069 47.0965 15.6322 47.789 16.214C48.4815 16.7959 49.038 17.5204 49.4198 18.3372C49.8017 19.154 49.9996 20.0435 50 20.9439V31.1078C50.0002 32.0085 49.8027 32.8984 49.4212 33.7158C49.0396 34.5331 48.4832 35.2581 47.7906 35.8404C47.098 36.4227 46.2859 36.8484 45.4108 37.0877C44.5356 37.3271 43.6184 37.3744 42.7229 37.2263L37.5 36.3602V32.1702L43.4083 33.1459C43.7065 33.1951 44.0118 33.1793 44.3032 33.0997C44.5946 33.02 44.8651 32.8785 45.0958 32.6847C45.3265 32.491 45.512 32.2498 45.6393 31.9779C45.7667 31.7059 45.8329 31.4097 45.8333 31.1098V20.9459C45.8335 20.6457 45.7677 20.349 45.6406 20.0766C45.5135 19.8041 45.3282 19.5624 45.0974 19.3682C44.8666 19.1741 44.5959 19.0321 44.3042 18.9522C44.0125 18.8724 43.7068 18.8565 43.4083 18.9057L37.5 19.8835V15.6935Z" fill="#FF3E54"/>
</svg>
