<svg width="20" height="21" viewBox="0 0 20 21" fill="none" xmlns="http://www.w3.org/2000/svg">
<path fill-rule="evenodd" clip-rule="evenodd" d="M13.4167 3.44556H6.91675C4.67309 3.44556 2.85425 5.2644 2.85425 7.50806V14.0081C2.85425 16.2517 4.67309 18.0706 6.91675 18.0706H13.4167C15.6604 18.0706 17.4792 16.2517 17.4792 14.0081V7.50806C17.4792 5.2644 15.6604 3.44556 13.4167 3.44556ZM16.0574 14.0081C16.0529 15.4645 14.8732 16.6442 13.4167 16.6487H6.91675C5.46022 16.6442 4.28058 15.4645 4.27612 14.0081V7.50806C4.28058 6.05153 5.46022 4.87189 6.91675 4.86743H13.4167C14.8732 4.87189 16.0529 6.05153 16.0574 7.50806V14.0081ZM14.0261 7.71118C14.4749 7.71118 14.8386 7.34741 14.8386 6.89868C14.8386 6.44995 14.4749 6.08618 14.0261 6.08618C13.5774 6.08618 13.2136 6.44995 13.2136 6.89868C13.2136 7.34741 13.5774 7.71118 14.0261 7.71118ZM10.1667 7.10181C8.14746 7.10181 6.5105 8.73877 6.5105 10.7581C6.5105 12.7774 8.14746 14.4143 10.1667 14.4143C12.1861 14.4143 13.823 12.7774 13.823 10.7581C13.8252 9.78769 13.4406 8.85646 12.7545 8.17031C12.0683 7.48416 11.1371 7.09965 10.1667 7.10181ZM7.93237 10.7581C7.93237 11.9921 8.93272 12.9924 10.1667 12.9924C11.4008 12.9924 12.4011 11.9921 12.4011 10.7581C12.4011 9.52403 11.4008 8.52368 10.1667 8.52368C8.93272 8.52368 7.93237 9.52403 7.93237 10.7581Z" fill="#FF3E54"/>
</svg>
