<svg width="20" height="21" viewBox="0 0 20 21" fill="none" xmlns="http://www.w3.org/2000/svg">
<path fill-rule="evenodd" clip-rule="evenodd" d="M4.073 3.44556C3.3999 3.44556 2.85425 3.99121 2.85425 4.66431V16.8518C2.85425 17.5249 3.3999 18.0706 4.073 18.0706H16.2605C16.9336 18.0706 17.4792 17.5249 17.4792 16.8518V4.66431C17.4792 3.99121 16.9336 3.44556 16.2605 3.44556H4.073ZM7.33987 6.69777C7.34444 7.47472 6.76287 7.95346 6.07275 7.95003C5.42262 7.9466 4.8559 7.42902 4.85933 6.69891C4.86276 6.01222 5.40548 5.46035 6.11046 5.47635C6.82571 5.49235 7.34444 6.01679 7.33987 6.69777ZM10.394 8.93949H8.34651H8.34537V15.8944H10.5094V15.7321C10.5094 15.4234 10.5091 15.1147 10.5089 14.8059C10.5082 13.9821 10.5075 13.1575 10.5117 12.3341C10.5129 12.1341 10.522 11.9262 10.5734 11.7353C10.7665 11.0224 11.4075 10.5619 12.1228 10.6751C12.5821 10.747 12.8859 11.0133 13.0139 11.4463C13.0928 11.7171 13.1282 12.0084 13.1316 12.2907C13.1409 13.1419 13.1396 13.993 13.1383 14.8443C13.1378 15.1447 13.1373 15.4454 13.1373 15.7458V15.8932H15.3082V15.7264C15.3082 15.3592 15.3081 14.992 15.3078 14.6248C15.3074 13.7071 15.3069 12.7894 15.3094 11.8713C15.3105 11.4566 15.266 11.0476 15.1643 10.6465C15.0123 10.05 14.6981 9.55645 14.1874 9.20001C13.8252 8.94634 13.4276 8.78295 12.9831 8.76467C12.9325 8.76257 12.8815 8.75981 12.8302 8.75704C12.6029 8.74476 12.372 8.73228 12.1547 8.77609C11.5331 8.90063 10.987 9.18514 10.5745 9.68669C10.5266 9.74422 10.4797 9.80264 10.4098 9.88982L10.394 9.90956V8.93949ZM5.03308 15.8966H7.18684V8.94401H5.03308V15.8966Z" fill="#FF3E54"/>
</svg>
